<svg id="visual" viewBox="0 0 900 600" width="900" height="600" xmlns="http://www.w3.org/2000/svg" xmlns:xlink="http://www.w3.org/1999/xlink" version="1.1"><rect x="0" y="0" width="900" height="600" fill="#ffffff"></rect><path d="M0 474L21.5 460.5C43 447 86 420 128.8 413.3C171.7 406.7 214.3 420.3 257.2 426C300 431.7 343 429.3 385.8 430.5C428.7 431.7 471.3 436.3 514.2 432.5C557 428.7 600 416.3 642.8 418.8C685.7 421.3 728.3 438.7 771.2 447.2C814 455.7 857 455.3 878.5 455.2L900 455L900 601L878.5 601C857 601 814 601 771.2 601C728.3 601 685.7 601 642.8 601C600 601 557 601 514.2 601C471.3 601 428.7 601 385.8 601C343 601 300 601 257.2 601C214.3 601 171.7 601 128.8 601C86 601 43 601 21.5 601L0 601Z" fill="#abcee3" stroke-linecap="round" stroke-linejoin="miter"></path></svg>